# xmcd
#
# Track frame offsets: 
#        150
#        20212
#        40450
#        55900
#        70450
#        87975
#
# Disc length: 1246 seconds
#
# Revision: 3
# Processed by: cddbd v1.5.1PL2 Copyright (c) Steve Scherf et al.
# Submitted via: ExactAudioCopy v0.95b3
#
DISCID=5504dc06
DTITLE=Rockfabrik - Merry Christmas - Limited Edition of 3200 CDs
DYEAR=1995
DGENRE=Rock
TTITLE0=Pretty Maids - In Santa´s Claws
TTITLE1=Helloween - In The Middle Of A Heartbeat
TTITLE2=Atrocity - Back From Eternity
TTITLE3=Prolopower - Schickse and Baby
TTITLE4=Zero Emission - feat. DJ Lieby - The Colour Of Your Skin
TTITLE5=Wike Schnellowien - Ansage
EXTD=
EXTT0=
EXTT1=
EXTT2=
EXTT3=
EXTT4=
EXTT5=
PLAYORDER=
